<svg width="16" height="12" viewBox="0 0 16 12" fill="none" xmlns="http://www.w3.org/2000/svg">
<path d="M12.15 6.99996H1C0.71667 6.99996 0.479337 6.90396 0.288004 6.71196C0.0966702 6.51996 0.000670115 6.28263 3.44827e-06 5.99996C-0.000663218 5.7173 0.0953369 5.47996 0.288004 5.28796C0.48067 5.09596 0.718003 4.99996 1 4.99996H12.15L9.3 2.14996C9.1 1.94996 9.004 1.71663 9.012 1.44996C9.02 1.1833 9.116 0.949963 9.3 0.749963C9.5 0.549963 9.73767 0.445963 10.013 0.437963C10.2883 0.429963 10.5257 0.525629 10.725 0.724963L15.3 5.29996C15.4 5.39996 15.471 5.5083 15.513 5.62496C15.555 5.74163 15.5757 5.86663 15.575 5.99996C15.5743 6.1333 15.5537 6.2583 15.513 6.37496C15.4723 6.49163 15.4013 6.59996 15.3 6.69996L10.725 11.275C10.525 11.475 10.2877 11.571 10.013 11.563C9.73834 11.555 9.50067 11.4506 9.3 11.25C9.11667 11.05 9.02067 10.8166 9.012 10.55C9.00334 10.2833 9.09934 10.05 9.3 9.84996L12.15 6.99996Z" fill="#F3F3F3"/>
</svg>
