<svg width="64" height="64" viewBox="0 0 64 64" fill="none" xmlns="http://www.w3.org/2000/svg">
<rect width="64" height="64" rx="32" fill="#FFCC00"/>
<path d="M32 37.3333C31.2667 37.3333 30.6391 37.0724 30.1173 36.5507C29.5956 36.0289 29.3342 35.4009 29.3333 34.6667C29.3324 33.9324 29.5938 33.3049 30.1173 32.784C30.6409 32.2631 31.2684 32.0018 32 32C32.7316 31.9982 33.3596 32.2596 33.884 32.784C34.4084 33.3084 34.6693 33.936 34.6667 34.6667C34.664 35.3973 34.4031 36.0253 33.884 36.5507C33.3649 37.076 32.7369 37.3369 32 37.3333ZM25.8333 25.3333H38.1667L40.8333 20H23.1667L25.8333 25.3333ZM27.2 44H36.8C38.8 44 40.5 43.3058 41.9 41.9173C43.3 40.5289 44 38.8231 44 36.8C44 35.9556 43.8556 35.1333 43.5667 34.3333C43.2778 33.5333 42.8667 32.8111 42.3333 32.1667L38.8667 28H25.1333L21.6667 32.1667C21.1333 32.8111 20.7222 33.5333 20.4333 34.3333C20.1444 35.1333 20 35.9556 20 36.8C20 38.8222 20.6947 40.528 22.084 41.9173C23.4733 43.3067 25.1787 44.0009 27.2 44Z" fill="#222222"/>
</svg>
