<svg width="16" height="17" viewBox="0 0 16 17" fill="none" xmlns="http://www.w3.org/2000/svg">
<path d="M12.224 12.5595H10.4473V9.77483C10.4473 9.11083 10.434 8.25616 9.52067 8.25616C8.59467 8.25616 8.45333 8.97883 8.45333 9.72616V12.5595H6.676V6.8335H8.38267V7.6135H8.406C8.64467 7.16416 9.22467 6.68883 10.0913 6.68883C11.8913 6.68883 12.2247 7.87416 12.2247 9.41683L12.224 12.5595ZM4.66933 6.05016C4.5337 6.05034 4.39937 6.02374 4.27404 5.9719C4.14871 5.92006 4.03485 5.84399 3.93897 5.74805C3.8431 5.65212 3.7671 5.5382 3.71534 5.41284C3.66358 5.28747 3.63707 5.15313 3.63733 5.0175C3.63747 4.81339 3.69812 4.6139 3.81163 4.44426C3.92513 4.27462 4.0864 4.14245 4.27502 4.06446C4.46364 3.98648 4.67116 3.96617 4.87132 4.00612C5.07148 4.04607 5.2553 4.14448 5.39954 4.2889C5.54377 4.43332 5.64194 4.61727 5.68163 4.81748C5.72132 5.0177 5.70075 5.22519 5.62252 5.41371C5.54429 5.60223 5.41191 5.76332 5.24213 5.87661C5.07234 5.9899 4.87278 6.05029 4.66867 6.05016M5.55933 12.5595H3.778V6.8335H5.56L5.55933 12.5595ZM13.1133 2.3335H2.88667C2.396 2.3335 2 2.72016 2 3.19816V13.4688C2 13.9468 2.396 14.3335 2.88533 14.3335H13.1113C13.6 14.3335 14 13.9468 14 13.4688V3.19816C14 2.72083 13.6 2.3335 13.1107 2.3335H13.1133Z" fill="#F3F3F3"/>
</svg>
