<svg width="48" height="48" viewBox="0 0 48 48" fill="none" xmlns="http://www.w3.org/2000/svg">
<rect width="48" height="48" rx="24" fill="#F3F3F3"/>
<path d="M18.6667 30.8999V17.0999C18.6667 16.7222 18.8001 16.4053 19.0667 16.1493C19.3334 15.8933 19.6445 15.7657 20.0001 15.7666C20.1112 15.7666 20.2281 15.7831 20.3507 15.8159C20.4734 15.8488 20.5899 15.8991 20.7001 15.9666L31.5667 22.8666C31.7667 22.9999 31.917 23.1666 32.0174 23.3666C32.1179 23.5666 32.1676 23.7777 32.1667 23.9999C32.1659 24.2222 32.1161 24.4333 32.0174 24.6333C31.9187 24.8333 31.7685 24.9999 31.5667 25.1333L20.7001 32.0333C20.589 32.0999 20.4725 32.1502 20.3507 32.1839C20.229 32.2177 20.1121 32.2342 20.0001 32.2333C19.6445 32.2333 19.3334 32.1053 19.0667 31.8493C18.8001 31.5933 18.6667 31.2768 18.6667 30.8999Z" fill="#EE2726"/>
</svg>
