<svg width="24" height="24" viewBox="0 0 24 24" fill="none" xmlns="http://www.w3.org/2000/svg">
<path d="M10.9999 2V8.414C9.61522 8.157 8.18497 8.33306 6.90394 8.91817C5.62291 9.50329 4.55336 10.469 3.84096 11.6839C3.12855 12.8988 2.80791 14.3037 2.9227 15.7073C3.03749 17.111 3.58214 18.4451 4.48247 19.5281C5.3828 20.6111 6.59504 21.3902 7.95412 21.7594C9.3132 22.1286 10.753 22.0699 12.0776 21.5914C13.4021 21.1128 14.5469 20.2376 15.3562 19.085C16.1654 17.9324 16.5997 16.5583 16.5999 15.15V11.414C17.6749 11.8712 18.8317 12.1046 19.9999 12.1H20.9999V6.5H19.9999C18.0969 6.5 16.5999 4.963 16.5999 3V2H10.9999ZM12.9999 4H14.6879C15.0819 6.22 16.7679 7.996 18.9999 8.41V10.028C17.9619 9.876 17.0249 9.486 16.1569 8.905L14.5999 7.863V15.15C14.5998 16.1199 14.3089 17.0674 13.7649 17.8703C13.2208 18.6732 12.4485 19.2945 11.5477 19.654C10.6469 20.0136 9.65903 20.0947 8.71164 19.8871C7.76425 19.6795 6.90087 19.1926 6.23301 18.4893C5.56515 17.786 5.12348 16.8986 4.96505 15.9418C4.80662 14.9849 4.93871 14.0026 5.34426 13.1216C5.7498 12.2405 6.41017 11.5014 7.24008 10.9995C8.07 10.4976 9.03132 10.256 9.99991 10.306V11.91C9.34838 11.8597 8.69683 12.007 8.13029 12.3327C7.56375 12.6583 7.10853 13.1472 6.82405 13.7355C6.53957 14.3238 6.43903 14.9842 6.53556 15.6305C6.6321 16.2768 6.92122 16.879 7.36518 17.3584C7.80915 17.8379 8.38735 18.1725 9.02433 18.3183C9.6613 18.4642 10.3275 18.4147 10.9359 18.1763C11.5443 17.9378 12.0667 17.5215 12.4349 16.9816C12.8031 16.4418 13 15.8035 12.9999 15.15V4ZM8.49991 15.15C8.49991 14.8185 8.6316 14.5005 8.86602 14.2661C9.10044 14.0317 9.41839 13.9 9.74991 13.9C10.0814 13.9 10.3994 14.0317 10.6338 14.2661C10.8682 14.5005 10.9999 14.8185 10.9999 15.15C10.9999 15.4815 10.8682 15.7995 10.6338 16.0339C10.3994 16.2683 10.0814 16.4 9.74991 16.4C9.41839 16.4 9.10044 16.2683 8.86602 16.0339C8.6316 15.7995 8.49991 15.4815 8.49991 15.15Z" fill="#F3F3F3"/>
</svg>
