<svg width="64" height="64" viewBox="0 0 64 64" fill="none" xmlns="http://www.w3.org/2000/svg">
<rect width="64" height="64" rx="32" fill="#FFCC00"/>
<path d="M33.3332 32.2333V28C33.3332 27.6222 33.2052 27.3058 32.9492 27.0507C32.6932 26.7955 32.3767 26.6675 31.9998 26.6667C31.6229 26.6658 31.3065 26.7938 31.0505 27.0507C30.7945 27.3075 30.6665 27.624 30.6665 28V32.7667C30.6665 32.9444 30.6998 33.1169 30.7665 33.284C30.8332 33.4511 30.9332 33.6009 31.0665 33.7333L34.4332 37.1C34.6998 37.3667 35.0167 37.5 35.3838 37.5C35.7509 37.5 36.0674 37.3667 36.3332 37.1C36.5776 36.8333 36.6998 36.5169 36.6998 36.1507C36.6998 35.7844 36.5776 35.4787 36.3332 35.2333L33.3332 32.2333ZM31.9998 24C32.3776 24 32.6945 23.872 32.9505 23.616C33.2065 23.36 33.3341 23.0435 33.3332 22.6667C33.3323 22.2898 33.2043 21.9733 32.9492 21.7173C32.6941 21.4613 32.3776 21.3333 31.9998 21.3333C31.6221 21.3333 31.3056 21.4613 31.0505 21.7173C30.7954 21.9733 30.6674 22.2898 30.6665 22.6667C30.6656 23.0435 30.7936 23.3604 31.0505 23.6173C31.3074 23.8742 31.6238 24.0018 31.9998 24ZM39.9998 32C39.9998 32.3778 40.1278 32.6947 40.3838 32.9507C40.6398 33.2067 40.9563 33.3342 41.3332 33.3333C41.7101 33.3324 42.027 33.2044 42.2838 32.9493C42.5407 32.6942 42.6683 32.3778 42.6665 32C42.6647 31.6222 42.5367 31.3058 42.2825 31.0507C42.0283 30.7955 41.7118 30.6675 41.3332 30.6667C40.9545 30.6658 40.6381 30.7938 40.3838 31.0507C40.1296 31.3075 40.0016 31.624 39.9998 32ZM31.9998 40C31.6221 40 31.3056 40.128 31.0505 40.384C30.7954 40.64 30.6674 40.9564 30.6665 41.3333C30.6656 41.7102 30.7936 42.0271 31.0505 42.284C31.3074 42.5409 31.6238 42.6684 31.9998 42.6667C32.3758 42.6649 32.6927 42.5369 32.9505 42.2827C33.2083 42.0284 33.3358 41.712 33.3332 41.3333C33.3305 40.9547 33.2025 40.6382 32.9492 40.384C32.6958 40.1298 32.3794 40.0018 31.9998 40ZM23.9998 32C23.9998 31.6222 23.8718 31.3058 23.6158 31.0507C23.3598 30.7955 23.0434 30.6675 22.6665 30.6667C22.2896 30.6658 21.9732 30.7938 21.7172 31.0507C21.4612 31.3075 21.3332 31.624 21.3332 32C21.3332 32.376 21.4612 32.6929 21.7172 32.9507C21.9732 33.2084 22.2896 33.336 22.6665 33.3333C23.0434 33.3307 23.3603 33.2027 23.6172 32.9493C23.8741 32.696 24.0016 32.3795 23.9998 32ZM31.9998 45.3333C30.1554 45.3333 28.4221 44.9831 26.7998 44.2827C25.1776 43.5822 23.7665 42.6324 22.5665 41.4333C21.3665 40.2342 20.4167 38.8231 19.7172 37.2C19.0176 35.5769 18.6674 33.8435 18.6665 32C18.6656 30.1564 19.0158 28.4231 19.7172 26.8C20.4185 25.1769 21.3683 23.7658 22.5665 22.5667C23.7647 21.3675 25.1758 20.4178 26.7998 19.7173C28.4238 19.0169 30.1572 18.6667 31.9998 18.6667C33.8425 18.6667 35.5758 19.0169 37.1998 19.7173C38.8238 20.4178 40.235 21.3675 41.4332 22.5667C42.6314 23.7658 43.5816 25.1769 44.2838 26.8C44.9861 28.4231 45.3358 30.1564 45.3332 32C45.3305 33.8435 44.9803 35.5769 44.2825 37.2C43.5847 38.8231 42.635 40.2342 41.4332 41.4333C40.2314 42.6324 38.8203 43.5827 37.1998 44.284C35.5794 44.9853 33.8461 45.3351 31.9998 45.3333Z" fill="#222222"/>
</svg>
