<svg width="64" height="64" viewBox="0 0 64 64" fill="none" xmlns="http://www.w3.org/2000/svg">
<rect width="64" height="64" rx="32" fill="#FFCC00"/>
<path d="M31.9999 38.6667C32.7333 38.6667 33.3613 38.4058 33.8839 37.884C34.4066 37.3622 34.6675 36.7342 34.6666 36C34.6657 35.2658 34.4048 34.6382 33.8839 34.1173C33.363 33.5965 32.735 33.3351 31.9999 33.3333C31.2648 33.3316 30.6373 33.5929 30.1173 34.1173C29.5973 34.6418 29.3359 35.2693 29.3333 36C29.3306 36.7307 29.5919 37.3587 30.1173 37.884C30.6426 38.4093 31.2701 38.6702 31.9999 38.6667ZM23.9999 45.3333C23.2666 45.3333 22.639 45.0725 22.1173 44.5507C21.5955 44.0289 21.3341 43.4009 21.3333 42.6667V29.3333C21.3333 28.6 21.5946 27.9725 22.1173 27.4507C22.6399 26.9289 23.2675 26.6676 23.9999 26.6667H33.3333V24C33.3333 22.1556 33.9835 20.5836 35.2839 19.284C36.5844 17.9845 38.1564 17.3342 39.9999 17.3333C41.8435 17.3325 43.4159 17.9827 44.7173 19.284C46.0186 20.5853 46.6684 22.1573 46.6666 24H43.9999C43.9999 22.8889 43.611 21.9445 42.8333 21.1667C42.0555 20.3889 41.111 20 39.9999 20C38.8888 20 37.9444 20.3889 37.1666 21.1667C36.3888 21.9445 35.9999 22.8889 35.9999 24V26.6667H39.9999C40.7333 26.6667 41.3613 26.928 41.8839 27.4507C42.4066 27.9733 42.6675 28.6009 42.6666 29.3333V42.6667C42.6666 43.4 42.4057 44.028 41.8839 44.5507C41.3621 45.0733 40.7341 45.3342 39.9999 45.3333H23.9999Z" fill="#222222"/>
</svg>
