<svg width="64" height="64" viewBox="0 0 64 64" fill="none" xmlns="http://www.w3.org/2000/svg">
<rect width="64" height="64" rx="32" fill="#FFCC00"/>
<path d="M30.7332 35.3333L36.2665 31.8C36.6665 31.5333 36.8665 31.1556 36.8665 30.6667C36.8665 30.1778 36.6665 29.8 36.2665 29.5333L30.7332 26C30.2887 25.7111 29.8332 25.6889 29.3665 25.9333C28.8998 26.1778 28.6665 26.5667 28.6665 27.1V34.2333C28.6665 34.7667 28.8998 35.1556 29.3665 35.4C29.8332 35.6444 30.2887 35.6222 30.7332 35.3333ZM21.3332 41.3333C20.5998 41.3333 19.9723 41.0724 19.4505 40.5507C18.9287 40.0289 18.6674 39.4009 18.6665 38.6667V22.6667C18.6665 21.9333 18.9278 21.3058 19.4505 20.784C19.9732 20.2622 20.6007 20.0009 21.3332 20H42.6665C43.3998 20 44.0278 20.2613 44.5505 20.784C45.0732 21.3067 45.3341 21.9342 45.3332 22.6667V38.6667C45.3332 39.4 45.0723 40.028 44.5505 40.5507C44.0287 41.0733 43.4007 41.3342 42.6665 41.3333H37.3332V42.6667C37.3332 43.0444 37.2052 43.3613 36.9492 43.6173C36.6932 43.8733 36.3767 44.0009 35.9998 44H27.9998C27.6221 44 27.3056 43.872 27.0505 43.616C26.7954 43.36 26.6674 43.0436 26.6665 42.6667V41.3333H21.3332Z" fill="#222222"/>
</svg>
